# xmcd
#
# Track frame offsets:
# 150
# 16461
# 29077
# 46331
# 61043
# 74937
# 92358
# 112024
# 121354
# 132818
# 145553
# 167328
#
# Disc length: 2469 seconds
#
#
# Revision: 0
# Processed by: cddbd v1.5.2PL0 Copyright (c) Steve Scherf et al.
# Submitted via: FreeRIP 2.70 
#
DISCID=a209a30c
DTITLE=Milionário e José Rico - Os Grandes Sucessos (vol. 17)
DYEAR=1988
DGENRE=Country
TTITLE0=Sonho de um Caminhoneiro
TTITLE1=De longe também se ama
TTITLE2=Meu mundo vazio (Sereia)
TTITLE3=Jogo do Amor
TTITLE4=Apaixonado
TTITLE5=Tribunal do Amor
TTITLE6=Sonhei com você
TTITLE7=Estreda da Vida
TTITLE8=O Tropeiro (El Bandolero)
TTITLE9=De amor para quem te ama
TTITLE10=Lembrança
TTITLE11=Praia deserta
EXTD=
EXTT0=
EXTT1=
EXTT2=
EXTT3=
EXTT4=
EXTT5=
EXTT6=
EXTT7=
EXTT8=
EXTT9=
EXTT10=
EXTT11=
PLAYORDER=
